<?xml version="1.0" encoding="UTF-8" standalone="no"?>
<!-- Created with Inkscape (http://www.inkscape.org/) -->

<svg
   version="1.1"
   id="svg1"
   width="397.24887"
   height="65.596893"
   viewBox="0 0 397.24889 65.596891"
   sodipodi:docname="our_approach_diagram.svg"
   inkscape:version="1.4 (e7c3feb100, 2024-10-09)"
   inkscape:export-filename="our_approach_diagram.pdf"
   inkscape:export-xdpi="96"
   inkscape:export-ydpi="96"
   xmlns:inkscape="http://www.inkscape.org/namespaces/inkscape"
   xmlns:sodipodi="http://sodipodi.sourceforge.net/DTD/sodipodi-0.dtd"
   xmlns="http://www.w3.org/2000/svg"
   xmlns:svg="http://www.w3.org/2000/svg">
  <defs
     id="defs1">
    <rect
       x="-22.800957"
       y="-30.593687"
       width="203.18826"
       height="104.48033"
       id="rect8" />
    <marker
       style="overflow:visible"
       id="Triangle"
       refX="0"
       refY="0"
       orient="auto-start-reverse"
       inkscape:stockid="Triangle arrow"
       markerWidth="1"
       markerHeight="1"
       viewBox="0 0 1 1"
       inkscape:isstock="true"
       inkscape:collect="always"
       preserveAspectRatio="xMidYMid">
      <path
         transform="scale(0.5)"
         style="fill:context-stroke;fill-rule:evenodd;stroke:context-stroke;stroke-width:1pt"
         d="M 5.77,0 -2.88,5 V -5 Z"
         id="path135" />
    </marker>
    <clipPath
       clipPathUnits="userSpaceOnUse"
       id="clipPath59">
      <path
         d="M 0,0 H 2384 V 3371 H 0 Z"
         transform="matrix(0,1.000153,1,0,0,0)"
         id="path59" />
    </clipPath>
    <clipPath
       clipPathUnits="userSpaceOnUse"
       id="clipPath60">
      <path
         d="M 0,0 H 2384 V 3371 H 0 Z"
         transform="matrix(0,1.000153,1,0,0,0)"
         id="path60" />
    </clipPath>
    <clipPath
       clipPathUnits="userSpaceOnUse"
       id="clipPath61">
      <path
         d="M 0,0 H 2384 V 3371 H 0 Z"
         transform="matrix(0,1.000153,1,0,0,0)"
         id="path61" />
    </clipPath>
    <clipPath
       clipPathUnits="userSpaceOnUse"
       id="clipPath62">
      <path
         d="M 0,0 H 2384 V 3371 H 0 Z"
         transform="matrix(0.50007652,0.50007652,0.50000001,-0.50000001,0,0)"
         id="path62" />
    </clipPath>
    <clipPath
       clipPathUnits="userSpaceOnUse"
       id="clipPath63">
      <path
         d="M 0,0 H 2384 V 3371 H 0 Z"
         transform="matrix(0.50007652,0.50007652,0.50000001,-0.50000001,0,0)"
         id="path63" />
    </clipPath>
    <clipPath
       clipPathUnits="userSpaceOnUse"
       id="clipPath64">
      <path
         d="M 0,0 H 2384 V 3371 H 0 Z"
         transform="matrix(0,1.000153,1,0,0,0)"
         id="path64" />
    </clipPath>
    <clipPath
       clipPathUnits="userSpaceOnUse"
       id="clipPath65">
      <path
         d="M 0,0 H 2384 V 3371 H 0 Z"
         transform="matrix(0,1.000153,1,0,0,0)"
         id="path65" />
    </clipPath>
    <clipPath
       clipPathUnits="userSpaceOnUse"
       id="clipPath66">
      <path
         d="M 0,0 H 2384 V 3371 H 0 Z"
         transform="matrix(0,1.000153,1,0,0,0)"
         id="path66" />
    </clipPath>
    <clipPath
       clipPathUnits="userSpaceOnUse"
       id="clipPath67">
      <path
         d="M 0,0 H 2384 V 3371 H 0 Z"
         transform="matrix(0.50007652,0.50007652,0.50000001,-0.50000001,0,0)"
         id="path67" />
    </clipPath>
    <clipPath
       clipPathUnits="userSpaceOnUse"
       id="clipPath68">
      <path
         d="M 0,0 H 2384 V 3371 H 0 Z"
         transform="matrix(0,1.000153,1,0,0,0)"
         id="path68" />
    </clipPath>
    <clipPath
       clipPathUnits="userSpaceOnUse"
       id="clipPath69">
      <path
         d="M 0,0 H 2384 V 3371 H 0 Z"
         transform="matrix(0.50007652,0.50007652,0.50000001,-0.50000001,0,0)"
         id="path69" />
    </clipPath>
    <clipPath
       clipPathUnits="userSpaceOnUse"
       id="clipPath70">
      <path
         d="M 0,0 H 2384 V 3371 H 0 Z"
         transform="matrix(0,1.000153,1,0,0,0)"
         id="path70" />
    </clipPath>
    <clipPath
       clipPathUnits="userSpaceOnUse"
       id="clipPath71">
      <path
         d="M 0,0 H 2384 V 3371 H 0 Z"
         transform="matrix(0,1.000153,1,0,0,0)"
         id="path71" />
    </clipPath>
    <clipPath
       clipPathUnits="userSpaceOnUse"
       id="clipPath72">
      <path
         d="M 0,0 H 2384 V 3371 H 0 Z"
         transform="matrix(0.50007652,0.50007652,0.50000001,-0.50000001,0,0)"
         id="path72" />
    </clipPath>
    <clipPath
       clipPathUnits="userSpaceOnUse"
       id="clipPath73">
      <path
         d="M 0,0 H 2384 V 3371 H 0 Z"
         transform="matrix(0,1.000153,1,0,0,0)"
         id="path73" />
    </clipPath>
    <clipPath
       clipPathUnits="userSpaceOnUse"
       id="clipPath74">
      <path
         d="M 0,0 H 2384 V 3371 H 0 Z"
         transform="matrix(0,1.000153,1,0,0,0)"
         id="path74" />
    </clipPath>
    <clipPath
       clipPathUnits="userSpaceOnUse"
       id="clipPath75">
      <path
         d="M 0,0 H 2384 V 3371 H 0 Z"
         transform="scale(1.000153,1)"
         id="path75" />
    </clipPath>
    <clipPath
       clipPathUnits="userSpaceOnUse"
       id="clipPath76">
      <path
         d="M 0,0 H 2384 V 3371 H 0 Z"
         transform="matrix(0.01666462,0.9998753,-0.99972232,0.01666202,0,0)"
         id="path76" />
    </clipPath>
    <clipPath
       clipPathUnits="userSpaceOnUse"
       id="clipPath77">
      <path
         d="M 0,0 H 2384 V 3371 H 0 Z"
         transform="matrix(-0.01666462,-0.9998753,0.99972232,-0.01666202,0,0)"
         id="path77" />
    </clipPath>
    <clipPath
       clipPathUnits="userSpaceOnUse"
       id="clipPath78">
      <path
         d="M 0,0 H 2384 V 3371 H 0 Z"
         transform="scale(1.000153,1)"
         id="path78" />
    </clipPath>
    <clipPath
       clipPathUnits="userSpaceOnUse"
       id="clipPath79">
      <path
         d="M 0,0 H 2384 V 3371 H 0 Z"
         transform="matrix(0.47457224,0.65774044,-0.65763981,0.47449923,0,0)"
         id="path79" />
    </clipPath>
    <clipPath
       clipPathUnits="userSpaceOnUse"
       id="clipPath80">
      <path
         d="M 0,0 H 2384 V 3371 H 0 Z"
         transform="matrix(-0.47457224,-0.65774044,0.65763981,-0.47449923,0,0)"
         id="path80" />
    </clipPath>
    <clipPath
       clipPathUnits="userSpaceOnUse"
       id="clipPath81">
      <path
         d="M 0,0 H 2384 V 3371 H 0 Z"
         transform="scale(1.000153,1)"
         id="path81" />
    </clipPath>
    <clipPath
       clipPathUnits="userSpaceOnUse"
       id="clipPath82">
      <path
         d="M 0,0 H 2384 V 3371 H 0 Z"
         transform="matrix(0.57546719,0.49436084,-0.49428548,0.57537914,0,0)"
         id="path82" />
    </clipPath>
    <clipPath
       clipPathUnits="userSpaceOnUse"
       id="clipPath83">
      <path
         d="M 0,0 H 2384 V 3371 H 0 Z"
         transform="matrix(-0.57546719,-0.49436084,0.49428548,-0.57537914,0,0)"
         id="path83" />
    </clipPath>
    <clipPath
       clipPathUnits="userSpaceOnUse"
       id="clipPath84">
      <path
         d="M 0,0 H 2384 V 3371 H 0 Z"
         transform="scale(1.000153,1)"
         id="path84" />
    </clipPath>
    <clipPath
       clipPathUnits="userSpaceOnUse"
       id="clipPath85">
      <path
         d="M 0,0 H 2384 V 3371 H 0 Z"
         transform="matrix(0.92176278,0.26880724,-0.26876576,0.92162175,0,0)"
         id="path85" />
    </clipPath>
    <clipPath
       clipPathUnits="userSpaceOnUse"
       id="clipPath86">
      <path
         d="M 0,0 H 2384 V 3371 H 0 Z"
         transform="matrix(-0.92176278,-0.26880724,0.26876576,-0.92162175,0,0)"
         id="path86" />
    </clipPath>
    <clipPath
       clipPathUnits="userSpaceOnUse"
       id="clipPath87">
      <path
         d="M 0,0 H 2384 V 3371 H 0 Z"
         transform="scale(1.000153,1)"
         id="path87" />
    </clipPath>
    <clipPath
       clipPathUnits="userSpaceOnUse"
       id="clipPath88">
      <path
         d="M 0,0 H 2384 V 3371 H 0 Z"
         transform="matrix(0.83111783,-0.37481753,0.37476018,0.83099067,0,0)"
         id="path88" />
    </clipPath>
    <clipPath
       clipPathUnits="userSpaceOnUse"
       id="clipPath89">
      <path
         d="M 0,0 H 2384 V 3371 H 0 Z"
         transform="matrix(-0.83111783,0.37481753,-0.37476018,-0.83099067,0,0)"
         id="path89" />
    </clipPath>
    <clipPath
       clipPathUnits="userSpaceOnUse"
       id="clipPath90">
      <path
         d="M 0,0 H 2384 V 3371 H 0 Z"
         transform="scale(1.000153,1)"
         id="path90" />
    </clipPath>
    <clipPath
       clipPathUnits="userSpaceOnUse"
       id="clipPath91">
      <path
         d="M 0,0 H 2384 V 3371 H 0 Z"
         transform="matrix(0.5836724,-0.49303975,0.49296445,0.5835831,0,0)"
         id="path91" />
    </clipPath>
    <clipPath
       clipPathUnits="userSpaceOnUse"
       id="clipPath92">
      <path
         d="M 0,0 H 2384 V 3371 H 0 Z"
         transform="matrix(-0.5836724,0.49303975,-0.49296445,-0.5835831,0,0)"
         id="path92" />
    </clipPath>
    <clipPath
       clipPathUnits="userSpaceOnUse"
       id="clipPath93">
      <path
         d="M 0,0 H 2384 V 3371 H 0 Z"
         transform="scale(1.000153,1)"
         id="path93" />
    </clipPath>
    <clipPath
       clipPathUnits="userSpaceOnUse"
       id="clipPath94">
      <path
         d="M 0,0 H 2384 V 3371 H 0 Z"
         transform="matrix(0,-1.000153,1,0,0,0)"
         id="path94" />
    </clipPath>
    <clipPath
       clipPathUnits="userSpaceOnUse"
       id="clipPath95">
      <path
         d="M 0,0 H 2384 V 3371 H 0 Z"
         transform="matrix(0,1.000153,-1,0,0,0)"
         id="path95" />
    </clipPath>
    <clipPath
       clipPathUnits="userSpaceOnUse"
       id="clipPath96">
      <path
         d="M 0,0 H 2384 V 3371 H 0 Z"
         transform="scale(1.000153,1)"
         id="path96" />
    </clipPath>
    <clipPath
       clipPathUnits="userSpaceOnUse"
       id="clipPath97">
      <path
         d="M 0,0 H 2384 V 3371 H 0 Z"
         transform="matrix(-0.42095157,-0.77003287,0.76991505,-0.42088688,0,0)"
         id="path97" />
    </clipPath>
    <clipPath
       clipPathUnits="userSpaceOnUse"
       id="clipPath98">
      <path
         d="M 0,0 H 2384 V 3371 H 0 Z"
         transform="matrix(0.42095157,0.77003287,-0.76991505,0.42088688,0,0)"
         id="path98" />
    </clipPath>
    <clipPath
       clipPathUnits="userSpaceOnUse"
       id="clipPath99">
      <path
         d="M 0,0 H 2384 V 3371 H 0 Z"
         transform="scale(1.000153,1)"
         id="path99" />
    </clipPath>
    <clipPath
       clipPathUnits="userSpaceOnUse"
       id="clipPath100">
      <path
         d="M 0,0 H 2384 V 3371 H 0 Z"
         transform="matrix(-0.5623428,-0.49618489,0.49610897,-0.56225676,0,0)"
         id="path100" />
    </clipPath>
    <clipPath
       clipPathUnits="userSpaceOnUse"
       id="clipPath101">
      <path
         d="M 0,0 H 2384 V 3371 H 0 Z"
         transform="matrix(0.5623428,0.49618489,-0.49610897,0.56225676,0,0)"
         id="path101" />
    </clipPath>
    <clipPath
       clipPathUnits="userSpaceOnUse"
       id="clipPath102">
      <path
         d="M 0,0 H 2384 V 3371 H 0 Z"
         transform="scale(1.000153,1)"
         id="path102" />
    </clipPath>
    <clipPath
       clipPathUnits="userSpaceOnUse"
       id="clipPath103">
      <path
         d="M 0,0 H 2384 V 3371 H 0 Z"
         transform="matrix(-0.96529152,-0.18344401,0.18341505,-0.96514383,0,0)"
         id="path103" />
    </clipPath>
    <clipPath
       clipPathUnits="userSpaceOnUse"
       id="clipPath104">
      <path
         d="M 0,0 H 2384 V 3371 H 0 Z"
         transform="matrix(0.96529152,0.18344401,-0.18341505,0.96514383,0,0)"
         id="path104" />
    </clipPath>
    <clipPath
       clipPathUnits="userSpaceOnUse"
       id="clipPath105">
      <path
         d="M 0,0 H 2384 V 3371 H 0 Z"
         transform="scale(1.000153,1)"
         id="path105" />
    </clipPath>
    <clipPath
       clipPathUnits="userSpaceOnUse"
       id="clipPath106">
      <path
         d="M 0,0 H 2384 V 3371 H 0 Z"
         transform="matrix(-0.91490046,0.27928069,-0.27923769,-0.91476048,0,0)"
         id="path106" />
    </clipPath>
    <clipPath
       clipPathUnits="userSpaceOnUse"
       id="clipPath107">
      <path
         d="M 0,0 H 2384 V 3371 H 0 Z"
         transform="matrix(0.91490046,-0.27928069,0.27923769,0.91476048,0,0)"
         id="path107" />
    </clipPath>
    <clipPath
       clipPathUnits="userSpaceOnUse"
       id="clipPath108">
      <path
         d="M 0,0 H 2384 V 3371 H 0 Z"
         transform="scale(1.000153,1)"
         id="path108" />
    </clipPath>
    <clipPath
       clipPathUnits="userSpaceOnUse"
       id="clipPath109">
      <path
         d="M 0,0 H 2384 V 3371 H 0 Z"
         transform="matrix(-0.5452871,0.4980287,-0.49795239,-0.54520367,0,0)"
         id="path109" />
    </clipPath>
    <clipPath
       clipPathUnits="userSpaceOnUse"
       id="clipPath110">
      <path
         d="M 0,0 H 2384 V 3371 H 0 Z"
         transform="matrix(0.5452871,-0.4980287,0.49795239,0.54520367,0,0)"
         id="path110" />
    </clipPath>
    <clipPath
       clipPathUnits="userSpaceOnUse"
       id="clipPath890">
      <path
         d="m 1003.84,2543.59 h 9 v 272.301 h -9 z"
         transform="matrix(0.11110818,0,0,-0.00367243,-111.53498,10.341165)"
         id="path890" />
    </clipPath>
    <clipPath
       clipPathUnits="userSpaceOnUse"
       id="clipPath891">
      <path
         d="m 1003.84,2543.59 h 9 v 272.301 h -9 z"
         transform="scale(1.3333333)"
         id="path891" />
    </clipPath>
    <clipPath
       clipPathUnits="userSpaceOnUse"
       id="clipPath934">
      <path
         d="m 1072.094,2543.59 h 9 v 272.301 h -9 z"
         transform="matrix(0.11110818,0,0,-0.00367243,-119.11831,10.341165)"
         id="path934" />
    </clipPath>
    <clipPath
       clipPathUnits="userSpaceOnUse"
       id="clipPath935">
      <path
         d="m 1072.094,2543.59 h 9 v 272.301 h -9 z"
         transform="scale(1.3333333)"
         id="path935" />
    </clipPath>
    <clipPath
       clipPathUnits="userSpaceOnUse"
       id="clipPath1390">
      <path
         d="m 452.184,2544.879 h 9 v 272.301 h -9 z"
         transform="matrix(0.11110818,0,0,-0.00367243,-50.241177,10.345909)"
         id="path1390" />
    </clipPath>
    <clipPath
       clipPathUnits="userSpaceOnUse"
       id="clipPath1391">
      <path
         d="m 452.184,2544.883 h 9 v 272.297 h -9 z"
         transform="scale(1.3333333)"
         id="path1391" />
    </clipPath>
    <clipPath
       clipPathUnits="userSpaceOnUse"
       id="clipPath1430">
      <path
         d="m 514.434,2544.879 h 9 v 272.301 h -9 z"
         transform="matrix(0.11110818,0,0,-0.00367243,-57.157843,10.345909)"
         id="path1430" />
    </clipPath>
    <clipPath
       clipPathUnits="userSpaceOnUse"
       id="clipPath1431">
      <path
         d="m 514.434,2544.883 h 9 v 272.297 h -9 z"
         transform="scale(1.3333333)"
         id="path1431" />
    </clipPath>
    <clipPath
       clipPathUnits="userSpaceOnUse"
       id="clipPath1874">
      <path
         d="m 452.184,2922.199 h 9 V 3194.5 h -9 z"
         transform="matrix(0.11110818,0,0,-0.00367243,-50.241177,11.731584)"
         id="path1874" />
    </clipPath>
    <clipPath
       clipPathUnits="userSpaceOnUse"
       id="clipPath1875">
      <path
         d="m 452.184,2922.199 h 9 V 3194.5 h -9 z"
         transform="scale(1.3333333)"
         id="path1875" />
    </clipPath>
    <clipPath
       clipPathUnits="userSpaceOnUse"
       id="clipPath1914">
      <path
         d="m 514.434,2922.199 h 9 V 3194.5 h -9 z"
         transform="matrix(0.11110818,0,0,-0.00367243,-57.157843,11.731584)"
         id="path1914" />
    </clipPath>
    <clipPath
       clipPathUnits="userSpaceOnUse"
       id="clipPath1915">
      <path
         d="m 514.434,2922.199 h 9 V 3194.5 h -9 z"
         transform="scale(1.3333333)"
         id="path1915" />
    </clipPath>
    <clipPath
       clipPathUnits="userSpaceOnUse"
       id="clipPath2516">
      <path
         d="M 0,0 H 2384 V 3371 H 0 Z"
         id="path2516" />
    </clipPath>
    <clipPath
       clipPathUnits="userSpaceOnUse"
       id="clipPath2518">
      <path
         d="m 2055.434,3201.008 h 9 v 8.254 h -9 z"
         transform="scale(1.3333333)"
         id="path2518" />
    </clipPath>
    <marker
       style="overflow:visible"
       id="Triangle-6"
       refX="0"
       refY="0"
       orient="auto-start-reverse"
       inkscape:stockid="Triangle arrow"
       markerWidth="1"
       markerHeight="1"
       viewBox="0 0 1 1"
       inkscape:isstock="true"
       inkscape:collect="always"
       preserveAspectRatio="xMidYMid">
      <path
         transform="scale(0.5)"
         style="fill:context-stroke;fill-rule:evenodd;stroke:context-stroke;stroke-width:1pt"
         d="M 5.77,0 -2.88,5 V -5 Z"
         id="path135-1" />
    </marker>
  </defs>
  <sodipodi:namedview
     id="namedview1"
     pagecolor="#505050"
     bordercolor="#eeeeee"
     borderopacity="1"
     inkscape:showpageshadow="0"
     inkscape:pageopacity="0"
     inkscape:pagecheckerboard="0"
     inkscape:deskcolor="#505050"
     inkscape:zoom="1.665884"
     inkscape:cx="167.17851"
     inkscape:cy="37.517619"
     inkscape:window-width="1596"
     inkscape:window-height="949"
     inkscape:window-x="0"
     inkscape:window-y="0"
     inkscape:window-maximized="0"
     inkscape:current-layer="g1"
     showgrid="false">
    <inkscape:page
       x="0"
       y="0"
       inkscape:label="1"
       id="page1"
       width="397.2489"
       height="65.596893"
       margin="0"
       bleed="0" />
    <inkscape:grid
       id="grid7"
       units="px"
       originx="-341.05105"
       originy="-192.35148"
       spacingx="0.99999999"
       spacingy="1"
       empcolor="#0099e5"
       empopacity="0.30196078"
       color="#0099e5"
       opacity="0.14901961"
       empspacing="5"
       enabled="true"
       visible="false" />
  </sodipodi:namedview>
  <g
     id="g1"
     inkscape:groupmode="layer"
     inkscape:label="1"
     transform="translate(-1149.9991,-1082.7164)">
    <g
       id="g8">
      <circle
         style="font-style:normal;font-weight:normal;font-size:12px;font-family:Dialog;color-interpolation:auto;fill:#aaaaff;fill-opacity:1;stroke:#000000;stroke-width:0.938818;stroke-linecap:square;stroke-linejoin:miter;stroke-miterlimit:1;stroke-dasharray:none;stroke-dashoffset:0;stroke-opacity:1;color-rendering:auto;image-rendering:auto;shape-rendering:auto;text-rendering:auto"
         id="path6880-0-2-1-7-9-3-0-0-9-4"
         cx="-1113.9806"
         cy="1163.4113"
         r="12.942752"
         transform="rotate(-90)" />
      <circle
         style="font-style:normal;font-weight:normal;font-size:12px;font-family:Dialog;color-interpolation:auto;fill:#aaaaff;fill-opacity:1;stroke:#000000;stroke-width:0.938818;stroke-linecap:square;stroke-linejoin:miter;stroke-miterlimit:1;stroke-dasharray:none;stroke-dashoffset:0;stroke-opacity:1;color-rendering:auto;image-rendering:auto;shape-rendering:auto;text-rendering:auto"
         id="path6880-7-2-8-2-8-4-9-4-2-4-4"
         cx="-1096.1285"
         cy="1176.5951"
         r="12.942752"
         transform="rotate(-90)" />
      <circle
         style="font-style:normal;font-weight:normal;font-size:12px;font-family:Dialog;color-interpolation:auto;fill:#aaaaff;fill-opacity:1;stroke:#000000;stroke-width:0.938818;stroke-linecap:square;stroke-linejoin:miter;stroke-miterlimit:1;stroke-dasharray:none;stroke-dashoffset:0;stroke-opacity:1;color-rendering:auto;image-rendering:auto;shape-rendering:auto;text-rendering:auto"
         id="path6880-2-6-3-9-9-4-7-4-1-9-8-7"
         cx="-1096.4792"
         cy="1198.1125"
         r="12.942752"
         transform="rotate(-90)" />
      <rect
         transform="rotate(-45)"
         y="1620.6865"
         x="21.674532"
         height="23.841526"
         width="23.841526"
         id="rect5718-2-0-9-1-2-4-5-62-0-2-3-9-3-6-7-5-7-9-3-8"
         style="font-style:normal;font-weight:normal;font-size:12px;font-family:Dialog;color-interpolation:auto;fill:#87decc;fill-opacity:1;stroke:#000000;stroke-width:0.938825;stroke-linecap:square;stroke-linejoin:miter;stroke-miterlimit:4;stroke-dasharray:none;stroke-dashoffset:0;stroke-opacity:1;color-rendering:auto;image-rendering:auto;shape-rendering:auto;text-rendering:auto" />
      <rect
         transform="rotate(-45)"
         y="1634.2167"
         x="35.204689"
         height="23.841526"
         width="23.841526"
         id="rect5718-2-0-9-1-2-4-5-62-0-2-3-9-3-6-7-5-7-9-3"
         style="font-style:normal;font-weight:normal;font-size:12px;font-family:Dialog;color-interpolation:auto;fill:#87decc;fill-opacity:1;stroke:#000000;stroke-width:0.938825;stroke-linecap:square;stroke-linejoin:miter;stroke-miterlimit:4;stroke-dasharray:none;stroke-dashoffset:0;stroke-opacity:1;color-rendering:auto;image-rendering:auto;shape-rendering:auto;text-rendering:auto" />
      <circle
         style="font-style:normal;font-weight:normal;font-size:12px;font-family:Dialog;color-interpolation:auto;fill:#aaaaff;fill-opacity:1;stroke:#000000;stroke-width:0.938818;stroke-linecap:square;stroke-linejoin:miter;stroke-miterlimit:1;stroke-dasharray:none;stroke-dashoffset:0;stroke-opacity:1;color-rendering:auto;image-rendering:auto;shape-rendering:auto;text-rendering:auto"
         id="path6880-2-7-7-3-5-8-8-0-4-1-1"
         cx="-1114.0992"
         cy="1208.6235"
         r="12.942752"
         transform="rotate(-90)" />
    </g>
    <g
       id="g9">
      <circle
         style="font-style:normal;font-weight:normal;font-size:12px;font-family:Dialog;color-interpolation:auto;fill:#aaaaff;fill-opacity:1;stroke:#000000;stroke-width:0.938818;stroke-linecap:square;stroke-linejoin:miter;stroke-miterlimit:1;stroke-dasharray:none;stroke-dashoffset:0;stroke-opacity:1;color-rendering:auto;image-rendering:auto;shape-rendering:auto;text-rendering:auto"
         id="path6880-0-2-1-7-9-3-0-0-9-4-8"
         cx="-1114.0992"
         cy="1326.6235"
         r="12.942752"
         transform="rotate(-90)" />
      <circle
         style="font-style:normal;font-weight:normal;font-size:12px;font-family:Dialog;color-interpolation:auto;fill:#aaaaff;fill-opacity:1;stroke:#000000;stroke-width:0.938818;stroke-linecap:square;stroke-linejoin:miter;stroke-miterlimit:1;stroke-dasharray:none;stroke-dashoffset:0;stroke-opacity:1;color-rendering:auto;image-rendering:auto;shape-rendering:auto;text-rendering:auto"
         id="path6880-7-2-8-2-8-4-9-4-2-4-4-7"
         cx="-1096.2472"
         cy="1339.8076"
         r="12.942752"
         transform="rotate(-90)" />
      <circle
         style="font-style:normal;font-weight:normal;font-size:12px;font-family:Dialog;color-interpolation:auto;fill:#aaaaff;fill-opacity:1;stroke:#000000;stroke-width:0.938818;stroke-linecap:square;stroke-linejoin:miter;stroke-miterlimit:1;stroke-dasharray:none;stroke-dashoffset:0;stroke-opacity:1;color-rendering:auto;image-rendering:auto;shape-rendering:auto;text-rendering:auto"
         id="path6880-2-6-3-9-9-4-7-4-1-9-8-7-9"
         cx="-1096.5978"
         cy="1361.325"
         r="12.942752"
         transform="rotate(-90)" />
      <rect
         transform="rotate(-45)"
         y="1736.179"
         x="136.99922"
         height="23.841526"
         width="23.841526"
         id="rect5718-2-0-9-1-2-4-5-62-0-2-3-9-3-6-7-5-7-9-3-8-2"
         style="font-style:normal;font-weight:normal;font-size:12px;font-family:Dialog;color-interpolation:auto;fill:#87decc;fill-opacity:1;stroke:#000000;stroke-width:0.938824;stroke-linecap:square;stroke-linejoin:miter;stroke-miterlimit:4;stroke-dasharray:none;stroke-dashoffset:0;stroke-opacity:1;color-rendering:auto;image-rendering:auto;shape-rendering:auto;text-rendering:auto" />
      <rect
         transform="rotate(-45)"
         y="1749.7092"
         x="150.52937"
         height="23.841526"
         width="23.841526"
         id="rect5718-2-0-9-1-2-4-5-62-0-2-3-9-3-6-7-5-7-9-3-0"
         style="font-style:normal;font-weight:normal;font-size:12px;font-family:Dialog;color-interpolation:auto;fill:#87decc;fill-opacity:1;stroke:#000000;stroke-width:0.938824;stroke-linecap:square;stroke-linejoin:miter;stroke-miterlimit:4;stroke-dasharray:none;stroke-dashoffset:0;stroke-opacity:1;color-rendering:auto;image-rendering:auto;shape-rendering:auto;text-rendering:auto" />
      <circle
         style="font-style:normal;font-weight:normal;font-size:12px;font-family:Dialog;color-interpolation:auto;fill:#aaaaff;fill-opacity:1;stroke:#000000;stroke-width:0.938818;stroke-linecap:square;stroke-linejoin:miter;stroke-miterlimit:1;stroke-dasharray:none;stroke-dashoffset:0;stroke-opacity:1;color-rendering:auto;image-rendering:auto;shape-rendering:auto;text-rendering:auto"
         id="path6880-2-7-7-3-5-8-8-0-4-1-1-2"
         cx="-1114.2179"
         cy="1371.8359"
         r="12.942752"
         transform="rotate(-90)" />
      <path
         id="path278-9"
         d="m 1368.9588,1134.6432 c 2.5252,0 4.5758,2.05 4.5758,4.5782 0,2.5246 -2.0506,4.5756 -4.5758,4.5756 -2.5276,0 -4.575,-2.051 -4.575,-4.5756 0,-2.5282 2.0474,-4.5782 4.575,-4.5782 z"
         style="fill:#ffcc00;fill-opacity:1;fill-rule:nonzero;stroke:#000000;stroke-width:0.943408;stroke-linecap:square;stroke-linejoin:miter;stroke-miterlimit:4;stroke-dasharray:none;stroke-opacity:1" />
    </g>
    <g
       id="g10">
      <circle
         style="font-style:normal;font-weight:normal;font-size:12px;font-family:Dialog;color-interpolation:auto;fill:#aaaaff;fill-opacity:1;stroke:#000000;stroke-width:0.938818;stroke-linecap:square;stroke-linejoin:miter;stroke-miterlimit:1;stroke-dasharray:none;stroke-dashoffset:0;stroke-opacity:1;color-rendering:auto;image-rendering:auto;shape-rendering:auto;text-rendering:auto"
         id="path6880-0-2-1-7-9-3-0-0-9-4-8-0"
         cx="-1114.0992"
         cy="1488.6234"
         r="12.942752"
         transform="rotate(-90)" />
      <circle
         style="font-style:normal;font-weight:normal;font-size:12px;font-family:Dialog;color-interpolation:auto;fill:#aaaaff;fill-opacity:1;stroke:#000000;stroke-width:0.938818;stroke-linecap:square;stroke-linejoin:miter;stroke-miterlimit:1;stroke-dasharray:none;stroke-dashoffset:0;stroke-opacity:1;color-rendering:auto;image-rendering:auto;shape-rendering:auto;text-rendering:auto"
         id="path6880-7-2-8-2-8-4-9-4-2-4-4-7-3"
         cx="-1096.2472"
         cy="1501.8075"
         r="12.942752"
         transform="rotate(-90)" />
      <circle
         style="font-style:normal;font-weight:normal;font-size:12px;font-family:Dialog;color-interpolation:auto;fill:#aaaaff;fill-opacity:1;stroke:#000000;stroke-width:0.938818;stroke-linecap:square;stroke-linejoin:miter;stroke-miterlimit:1;stroke-dasharray:none;stroke-dashoffset:0;stroke-opacity:1;color-rendering:auto;image-rendering:auto;shape-rendering:auto;text-rendering:auto"
         id="path6880-2-6-3-9-9-4-7-4-1-9-8-7-9-6"
         cx="-1096.5978"
         cy="1523.3248"
         r="12.942752"
         transform="rotate(-90)" />
      <rect
         transform="rotate(-45)"
         y="1850.7302"
         x="251.55051"
         height="23.841526"
         width="23.841526"
         id="rect5718-2-0-9-1-2-4-5-62-0-2-3-9-3-6-7-5-7-9-3-8-2-1"
         style="font-style:normal;font-weight:normal;font-size:12px;font-family:Dialog;color-interpolation:auto;fill:#87decc;fill-opacity:1;stroke:#000000;stroke-width:0.938824;stroke-linecap:square;stroke-linejoin:miter;stroke-miterlimit:4;stroke-dasharray:none;stroke-dashoffset:0;stroke-opacity:1;color-rendering:auto;image-rendering:auto;shape-rendering:auto;text-rendering:auto" />
      <path
         id="path267"
         d="m 1520.9177,1117.7834 c 7.182,0 13.0042,5.8248 13.0042,13.0078 0,7.1824 -5.8222,13.007 -13.0042,13.007 -7.1828,0 -13.0042,-5.8246 -13.0042,-13.007 0,-7.183 5.8214,-13.0078 13.0042,-13.0078 z"
         style="fill:#aaaaff;fill-opacity:1;fill-rule:nonzero;stroke:#000000;stroke-width:0.943408;stroke-linecap:square;stroke-linejoin:miter;stroke-miterlimit:1;stroke-dasharray:none;stroke-opacity:1" />
      <circle
         style="font-style:normal;font-weight:normal;font-size:12px;font-family:Dialog;color-interpolation:auto;fill:#aaaaff;fill-opacity:1;stroke:#000000;stroke-width:0.938818;stroke-linecap:square;stroke-linejoin:miter;stroke-miterlimit:1;stroke-dasharray:none;stroke-dashoffset:0;stroke-opacity:1;color-rendering:auto;image-rendering:auto;shape-rendering:auto;text-rendering:auto"
         id="path6880-2-7-7-3-5-8-8-0-4-1-1-2-6"
         cx="-1114.2179"
         cy="1533.8358"
         r="12.942752"
         transform="rotate(-90)" />
      <path
         id="path278-9-3"
         d="m 1530.9588,1134.6432 c 2.5252,0 4.5758,2.05 4.5758,4.5782 0,2.5246 -2.0506,4.5756 -4.5758,4.5756 -2.5276,0 -4.575,-2.051 -4.575,-4.5756 0,-2.5282 2.0474,-4.5782 4.575,-4.5782 z"
         style="fill:#ffcc00;fill-opacity:1;fill-rule:nonzero;stroke:#000000;stroke-width:0.943408;stroke-linecap:square;stroke-linejoin:miter;stroke-miterlimit:4;stroke-dasharray:none;stroke-opacity:1" />
    </g>
    <path
       style="fill:none;stroke:#000000;stroke-width:1.51181;stroke-dasharray:none;stroke-opacity:1;marker-end:url(#Triangle)"
       d="m 1228.6234,1114.0992 h 73.5205"
       id="path7"
       sodipodi:nodetypes="cc" />
    <path
       style="fill:none;stroke:#000000;stroke-width:1.51181;stroke-dasharray:none;stroke-opacity:1;marker-end:url(#Triangle-6)"
       d="m 1392.6623,1114.2179 70.519,10e-5"
       id="path7-4"
       sodipodi:nodetypes="cc" />
    <text
       xml:space="preserve"
       style="font-size:12px;line-height:1.2;font-family:Montserrat;-inkscape-font-specification:Montserrat;text-align:center;writing-mode:lr-tb;direction:ltr;text-anchor:middle;fill:none;stroke:#000000;stroke-width:0.755906;stroke-dasharray:none;stroke-opacity:1"
       x="1268.038"
       y="1135.7834"
       id="text7"><tspan
         sodipodi:role="line"
         id="tspan7"
         x="1268.038"
         y="1135.7834"
         style="font-size:12px;fill:#000000;fill-opacity:1;stroke:none">phosphorylation</tspan></text>
    <text
       xml:space="preserve"
       style="font-size:12px;line-height:1.2;font-family:Montserrat;-inkscape-font-specification:Montserrat;text-align:center;writing-mode:lr-tb;direction:ltr;text-anchor:middle;white-space:pre;inline-size:88.5683;display:inline;fill:#000000;fill-opacity:1;stroke:none;stroke-width:0.755906;stroke-dasharray:none;stroke-opacity:1"
       x="1123.5044"
       y="1114.0228"
       id="text8"
       transform="translate(306.82519,15.812055)"><tspan
         x="1123.5044"
         y="1114.0228"
         id="tspan1">conformation<tspan
   y="1114.0228"
   id="tspan2"> </tspan></tspan><tspan
         x="1123.5044"
         y="1128.4228"
         id="tspan3">change</tspan></text>
  </g>
</svg>
